<?xml version="1.0" encoding="UTF-8"?>
<svg id="Layer_1" data-name="Layer 1" xmlns="http://www.w3.org/2000/svg" viewBox="0 0 367.05 142.97">
  <defs>
    <style>
      .cls-1 {
        fill: #231f20;
        stroke-width: 0px;
      }
    </style>
  </defs>
  <g>
    <path class="cls-1" d="M65.45,73.75c-.06-2.16-.13-4.47-.2-7.26-.07-2.72-1.1-5-2.82-6.25-1.31-.95-2.9-1.21-4.48-.73-3.54,1.06-6.25,5.56-6.16,10.24.05,2.67.09,4.9.13,6.99.08,4.12.15,7.68.22,12.96,0,.38.19.74.49.97.22.16.48.25.75.25.11,0,.21-.01.32-.04l2.37-.63c2.95-.79,5.06-1.35,8.76-2.35.55-.15.93-.65.92-1.22-.08-5.24-.18-8.81-.3-12.94ZM55.43,87.86l-.83.22c-.06-4.44-.12-7.68-.2-11.38-.04-2.08-.09-4.31-.13-6.98-.06-3.51,1.95-7.09,4.4-7.82.29-.09.57-.13.84-.13.53,0,1.02.16,1.48.49,1.08.78,1.75,2.39,1.79,4.3.07,2.78.13,5.1.2,7.26.11,3.86.2,7.23.28,11.94-3.14.84-5.13,1.37-7.83,2.09Z"/>
    <path class="cls-1" d="M122.03,20.94C108.53,7.44,90.58,0,71.48,0S34.44,7.44,20.94,20.94C7.44,34.44,0,52.39,0,71.48s7.44,37.04,20.94,50.55c13.5,13.5,31.45,20.94,50.55,20.94s37.04-7.44,50.55-20.94c13.5-13.5,20.94-31.45,20.94-50.55s-7.44-37.04-20.94-50.55ZM22.69,22.69C35.72,9.66,53.05,2.48,71.48,2.48s35.76,7.18,48.79,20.21c13.03,13.03,20.21,30.36,20.21,48.79,0,16.35-5.65,31.82-16.02,44.21l-12.39-40.33c-.02-.05-.04-.1-.06-.15,0,0,0,0,0,0,0,0,0-.01-.01-.02-.02-.05-.05-.09-.08-.14,0-.01-.02-.03-.03-.04-.04-.05-.08-.1-.12-.14,0,0-.01-.01-.02-.02-.04-.04-.08-.07-.12-.1-.01-.01-.03-.02-.04-.03-.05-.03-.09-.06-.15-.09,0,0-.01,0-.02,0-.05-.02-.1-.04-.15-.06,0,0-.02,0-.03,0-.02,0-.03,0-.05-.01-.05-.01-.1-.02-.15-.03-.02,0-.03,0-.05,0-.06,0-.12,0-.19,0-.01,0-.02,0-.04,0-.05,0-.11.01-.16.02,0,0-.02,0-.03,0-1.57.38-3.87.94-6.28,1.52-.26.06-.52.13-.77.19v-1.01l10.15-2.54s.1-.03.15-.05c.33-.13.59-.39.72-.73.14-.38.08-.81-.15-1.15l-25.95-36.36c-.33-.46-.92-.64-1.45-.44l-3.33,1.27-12.93-18.65s-.02-.03-.03-.05l-.67-.96s0,0,0,0c-.04-.06-.08-.11-.13-.16-.01-.01-.03-.02-.04-.04-.04-.03-.08-.07-.12-.1-.02-.01-.03-.02-.05-.03-.05-.04-.11-.07-.17-.09,0,0-.02,0-.02,0-.05-.02-.11-.04-.16-.06-.02,0-.04,0-.06-.01-.02,0-.04-.01-.06-.01-.03,0-.06,0-.08,0-.02,0-.04,0-.06,0-.07,0-.13,0-.19,0-.01,0-.03,0-.04,0-.05,0-.11.02-.16.03-.02,0-.04.01-.06.02-.06.02-.12.04-.17.07,0,0,0,0-.01,0,0,0,0,0,0,0-.06.03-.12.07-.17.11-.02.01-.03.02-.05.04-.04.03-.07.07-.11.1-.01.01-.03.03-.04.04,0,0-.01.01-.02.02l-27.98,34.26-17.7,5.74c-.42.14-.74.49-.83.92-.01.05-.02.11-.02.16,0,.05,0,.11,0,.16.02.32.16.63.41.85l13.19,11.77v25.56l-24.91,8.38c-5.06-9.71-7.74-20.56-7.74-31.82,0-18.43,7.18-35.76,20.21-48.79ZM68.63,18.73l7.36,19.38-31.54,10.23,24.18-29.62ZM103.55,72.67v-2.81c0-.29-.1-.58-.3-.8l-19.78-23.23c-.05-.06-.11-.12-.18-.17-.02-.01-.04-.03-.05-.04-.05-.04-.11-.07-.16-.1-.02,0-.03-.02-.05-.02-.07-.03-.15-.06-.22-.07-.02,0-.04,0-.06,0-.06-.01-.12-.02-.19-.02-.01,0-.03,0-.04,0-.01,0-.02,0-.04,0-.03,0-.06,0-.08,0-.03,0-.07,0-.1.01-.03,0-.06.01-.08.02-.02,0-.04,0-.06.01l-46.15,14.03c-.52.16-.88.64-.88,1.19v5.4l-9.93-8.86,52.79-17.13s.04-.01.06-.02l5.6-2.14s0,0,0,0l3.33-1.28,24.34,34.1-7.79,1.95ZM78.33,37.29l-4.54-11.96,7.51,10.83-2.96,1.14ZM37.61,95.82v-34.24l43.72-13.29,1.08,39.05-44.8,11.9v-3.41ZM84.85,85.89l-.99-35.78,17.21,20.21v6.51c-2.12.51-4.1.99-5.48,1.33-.05.01-.09.03-.14.05-.03.01-.06.02-.09.03-.07.03-.14.08-.21.12l-10.3,7.52ZM11.42,105.52l23.71-7.97v3.3c0,.38.16.78.48.98.19.12.71.3,1.07.22l47.31-12.56s.21-.08.23-.09c.06-.03.13-.07.19-.11l12.01-8.77,6.11-1.49s.06-.01.09-.02c.76-.18,1.53-.37,2.28-.55.13-.03.25-.06.38-.09l-69.74,52.06c-4.62-2.83-8.93-6.22-12.86-10.14-4.46-4.46-8.23-9.42-11.27-14.76ZM120.28,120.28c-13.03,13.03-30.36,20.21-48.79,20.21-11.96,0-23.46-3.03-33.61-8.71l72.36-54.01,12.33,40.12c-.74.81-1.5,1.61-2.28,2.39Z"/>
  </g>
  <g>
    <path class="cls-1" d="M161.37,38.36h8.56c1.04,0,2.12.12,3.25.36,1.13.24,2.17.65,3.11,1.24.94.59,1.71,1.39,2.31,2.41.6,1.02.9,2.3.9,3.84,0,1.34-.25,2.5-.73,3.48-.49.98-1.15,1.78-1.97,2.41-.83.63-1.78,1.1-2.85,1.41-1.08.31-2.2.46-3.38.46h-6.42v14.1h-2.77v-29.72ZM164.14,51.46h6.3c.78,0,1.55-.09,2.31-.27.76-.18,1.43-.48,2.01-.88.59-.41,1.06-.94,1.43-1.62.36-.67.55-1.5.55-2.48s-.19-1.76-.57-2.43-.87-1.22-1.47-1.66c-.6-.43-1.29-.75-2.08-.94-.78-.2-1.57-.29-2.35-.29h-6.13v10.58Z"/>
    <path class="cls-1" d="M185.46,38.36h2.77v29.72h-2.77v-29.72Z"/>
    <path class="cls-1" d="M192.18,38.36h2.98l9.57,26.07,9.65-26.07h2.94l-11.29,29.72h-2.77l-11.08-29.72Z"/>
    <path class="cls-1" d="M220.89,38.36h9.19c2.57,0,4.76.31,6.55.94,1.79.63,3.28,1.43,4.47,2.41,1.19.98,2.13,2.06,2.81,3.25.69,1.19,1.19,2.33,1.51,3.42.32,1.09.52,2.08.61,2.96.08.88.13,1.5.13,1.87s-.04.99-.13,1.87c-.08.88-.29,1.87-.61,2.96-.32,1.09-.83,2.23-1.51,3.42-.69,1.19-1.62,2.27-2.81,3.25-1.19.98-2.68,1.78-4.47,2.41-1.79.63-3.97.94-6.55.94h-9.19v-29.72ZM223.66,65.56h5.71c1.96,0,3.79-.24,5.5-.73,1.71-.49,3.19-1.24,4.45-2.25,1.26-1.01,2.25-2.29,2.98-3.84.73-1.55,1.09-3.39,1.09-5.52s-.36-3.97-1.09-5.52c-.73-1.55-1.72-2.83-2.98-3.84-1.26-1.01-2.74-1.76-4.45-2.25-1.71-.49-3.54-.73-5.5-.73h-5.71v24.68Z"/>
    <path class="cls-1" d="M252.37,38.36h18.18v2.52h-15.41v10.58h14.44v2.52h-14.44v11.59h16.08v2.52h-18.85v-29.72Z"/>
    <path class="cls-1" d="M277.26,38.36h3.57l18.09,26.03h.08v-26.03h2.77v29.72h-3.57l-18.09-26.03h-.08v26.03h-2.77v-29.72Z"/>
    <path class="cls-1" d="M309.92,38.36h3.57l18.09,26.03h.08v-26.03h2.77v29.72h-3.57l-18.09-26.03h-.08v26.03h-2.77v-29.72Z"/>
    <path class="cls-1" d="M351.69,38.36h2.85l12.51,29.72h-3.11l-3.23-7.89h-15.74l-3.36,7.89h-2.9l12.97-29.72ZM352.99,41.38l-6.93,16.29h13.64l-6.72-16.29Z"/>
    <path class="cls-1" d="M185.84,99.19c-1.43,1.93-3.08,3.32-4.95,4.16-1.88.84-3.9,1.26-6.09,1.26s-4.34-.38-6.23-1.15-3.51-1.85-4.85-3.23c-1.34-1.39-2.39-3.04-3.15-4.95-.76-1.92-1.13-4.01-1.13-6.28s.38-4.35,1.13-6.25c.76-1.9,1.8-3.55,3.15-4.93,1.34-1.39,2.96-2.47,4.85-3.25,1.89-.78,3.97-1.18,6.23-1.18,2.01,0,3.9.36,5.65,1.07,1.75.71,3.28,1.91,4.6,3.59l-2.27,1.89c-.92-1.4-2.11-2.42-3.55-3.06-1.44-.64-2.92-.97-4.43-.97-1.93,0-3.67.34-5.23,1.01s-2.88,1.6-3.97,2.77c-1.09,1.18-1.93,2.56-2.52,4.16-.59,1.6-.88,3.32-.88,5.16s.29,3.57.88,5.16c.59,1.6,1.43,2.98,2.52,4.16,1.09,1.18,2.41,2.1,3.97,2.77s3.3,1.01,5.23,1.01c.76,0,1.54-.09,2.35-.27.81-.18,1.6-.46,2.37-.84.77-.38,1.5-.85,2.2-1.43.7-.57,1.32-1.27,1.85-2.08l2.27,1.72Z"/>
    <path class="cls-1" d="M190.92,74.13h2.77v13.1h16.62v-13.1h2.77v29.72h-2.77v-14.1h-16.62v14.1h-2.77v-29.72Z"/>
    <path class="cls-1" d="M242.34,92.47c0,1.6-.18,3.12-.55,4.58-.36,1.46-.97,2.74-1.83,3.86-.85,1.12-1.97,2.01-3.36,2.69-1.39.67-3.09,1.01-5.1,1.01s-3.72-.34-5.1-1.01-2.5-1.57-3.36-2.69c-.85-1.12-1.46-2.41-1.83-3.86-.36-1.45-.55-2.98-.55-4.58v-18.34h2.77v17.63c0,1.06.1,2.2.29,3.4.2,1.2.58,2.32,1.15,3.36.57,1.04,1.39,1.89,2.43,2.56,1.05.67,2.44,1.01,4.18,1.01s3.13-.34,4.18-1.01,1.86-1.52,2.43-2.56c.57-1.03.96-2.15,1.15-3.36.2-1.2.29-2.34.29-3.4v-17.63h2.77v18.34Z"/>
    <path class="cls-1" d="M249.94,74.13h7.81c.39,0,.92.01,1.6.04.67.03,1.4.11,2.18.25.78.14,1.58.36,2.39.67.81.31,1.54.76,2.18,1.34.64.59,1.18,1.33,1.6,2.22.42.9.63,1.99.63,3.27,0,1.43-.25,2.6-.73,3.53-.49.92-1.11,1.67-1.85,2.25-.74.57-1.56,1-2.46,1.28-.9.28-1.75.48-2.56.59l8.65,14.27h-3.15l-8.35-14.1h-5.16v14.1h-2.77v-29.72ZM252.71,87.22h5.88c1.45,0,2.64-.18,3.55-.55.91-.36,1.62-.81,2.12-1.34.5-.53.85-1.11,1.03-1.72.18-.62.27-1.18.27-1.68s-.09-1.06-.27-1.68c-.18-.62-.52-1.19-1.03-1.72-.5-.53-1.21-.98-2.12-1.34-.91-.36-2.09-.55-3.55-.55h-5.88v10.58Z"/>
    <path class="cls-1" d="M299.3,99.19c-1.43,1.93-3.08,3.32-4.95,4.16-1.88.84-3.9,1.26-6.09,1.26s-4.34-.38-6.23-1.15-3.51-1.85-4.85-3.23c-1.34-1.39-2.39-3.04-3.15-4.95-.76-1.92-1.13-4.01-1.13-6.28s.38-4.35,1.13-6.25c.76-1.9,1.8-3.55,3.15-4.93,1.34-1.39,2.96-2.47,4.85-3.25,1.89-.78,3.97-1.18,6.23-1.18,2.01,0,3.9.36,5.65,1.07,1.75.71,3.28,1.91,4.6,3.59l-2.27,1.89c-.92-1.4-2.11-2.42-3.55-3.06-1.44-.64-2.92-.97-4.43-.97-1.93,0-3.67.34-5.23,1.01s-2.88,1.6-3.97,2.77c-1.09,1.18-1.93,2.56-2.52,4.16-.59,1.6-.88,3.32-.88,5.16s.29,3.57.88,5.16c.59,1.6,1.43,2.98,2.52,4.16,1.09,1.18,2.41,2.1,3.97,2.77s3.3,1.01,5.23,1.01c.76,0,1.54-.09,2.35-.27.81-.18,1.6-.46,2.37-.84.77-.38,1.5-.85,2.2-1.43.7-.57,1.32-1.27,1.85-2.08l2.27,1.72Z"/>
    <path class="cls-1" d="M304.38,74.13h2.77v13.1h16.62v-13.1h2.77v29.72h-2.77v-14.1h-16.62v14.1h-2.77v-29.72Z"/>
  </g>
</svg>