<?xml version="1.0" encoding="UTF-8"?>
<svg id="Layer_1" data-name="Layer 1" xmlns="http://www.w3.org/2000/svg" viewBox="0 0 760.77 142.97">
  <defs>
    <style>
      .cls-1 {
        fill: #beab7f;
      }

      .cls-1, .cls-2 {
        stroke-width: 0px;
      }

      .cls-2 {
        fill: #39504f;
      }
    </style>
  </defs>
  <g>
    <path class="cls-2" d="M166.85,48.62h13.17c1.59,0,3.26.18,5,.55,1.74.37,3.34,1,4.78,1.9,1.44.9,2.63,2.14,3.55,3.71.93,1.57,1.39,3.54,1.39,5.91,0,2.07-.38,3.85-1.13,5.36-.75,1.51-1.77,2.74-3.04,3.71-1.27.97-2.73,1.69-4.39,2.16-1.66.47-3.39.71-5.2.71h-9.88v21.7h-4.26v-45.72ZM171.11,68.77h9.69c1.2,0,2.39-.14,3.55-.42,1.16-.28,2.2-.73,3.1-1.36.9-.62,1.64-1.45,2.2-2.49.56-1.03.84-2.3.84-3.81s-.29-2.71-.87-3.75c-.58-1.03-1.33-1.88-2.26-2.55-.93-.67-1.99-1.15-3.2-1.45-1.21-.3-2.41-.45-3.62-.45h-9.43v16.27Z"/>
    <path class="cls-2" d="M203.92,48.62h4.26v45.72h-4.26v-45.72Z"/>
    <path class="cls-2" d="M214.25,48.62h4.58l14.72,40.1,14.85-40.1h4.52l-17.37,45.72h-4.26l-17.05-45.72Z"/>
    <path class="cls-2" d="M258.42,48.62h14.14c3.96,0,7.32.48,10.07,1.45,2.75.97,5.05,2.21,6.88,3.71,1.83,1.51,3.27,3.18,4.33,5,1.05,1.83,1.83,3.58,2.32,5.26.49,1.68.81,3.2.94,4.55.13,1.36.19,2.31.19,2.87s-.06,1.52-.19,2.87c-.13,1.36-.44,2.87-.94,4.55-.5,1.68-1.27,3.43-2.32,5.26-1.06,1.83-2.5,3.5-4.33,5-1.83,1.51-4.12,2.74-6.88,3.71-2.76.97-6.11,1.45-10.07,1.45h-14.14v-45.72ZM262.68,90.47h8.78c3.01,0,5.83-.38,8.46-1.13,2.63-.75,4.91-1.9,6.85-3.45,1.94-1.55,3.47-3.52,4.59-5.91,1.12-2.39,1.68-5.22,1.68-8.49s-.56-6.1-1.68-8.49c-1.12-2.39-2.65-4.36-4.59-5.91-1.94-1.55-4.22-2.7-6.85-3.45-2.63-.75-5.45-1.13-8.46-1.13h-8.78v37.97Z"/>
    <path class="cls-2" d="M306.85,48.62h27.96v3.87h-23.7v16.27h22.21v3.87h-22.21v17.82h24.73v3.87h-29v-45.72Z"/>
    <path class="cls-2" d="M345.15,48.62h5.49l27.83,40.04h.13v-40.04h4.26v45.72h-5.49l-27.83-40.04h-.13v40.04h-4.26v-45.72Z"/>
    <path class="cls-2" d="M395.39,48.62h5.49l27.83,40.04h.13v-40.04h4.26v45.72h-5.49l-27.83-40.04h-.13v40.04h-4.26v-45.72Z"/>
    <path class="cls-2" d="M459.65,48.62h4.39l19.24,45.72h-4.78l-4.97-12.14h-24.22l-5.17,12.14h-4.46l19.95-45.72ZM461.65,53.27l-10.66,25.06h20.99l-10.33-25.06Z"/>
    <path class="cls-2" d="M544.31,87.18c-2.2,2.97-4.74,5.1-7.62,6.39-2.88,1.29-6.01,1.94-9.36,1.94s-6.68-.59-9.59-1.78-5.39-2.84-7.46-4.97c-2.07-2.13-3.68-4.67-4.84-7.62-1.16-2.95-1.74-6.17-1.74-9.65s.58-6.69,1.74-9.62c1.16-2.93,2.78-5.46,4.84-7.59,2.07-2.13,4.55-3.8,7.46-5,2.91-1.2,6.1-1.81,9.59-1.81,3.1,0,5.99.55,8.69,1.65,2.69,1.1,5.05,2.94,7.07,5.52l-3.49,2.91c-1.42-2.15-3.24-3.72-5.46-4.71-2.22-.99-4.49-1.49-6.81-1.49-2.97,0-5.65.52-8.04,1.55-2.39,1.03-4.42,2.45-6.1,4.26-1.68,1.81-2.97,3.94-3.87,6.39-.9,2.45-1.36,5.1-1.36,7.94s.45,5.49,1.36,7.94,2.2,4.59,3.87,6.39c1.68,1.81,3.71,3.23,6.1,4.26s5.07,1.55,8.04,1.55c1.16,0,2.37-.14,3.62-.42,1.25-.28,2.46-.71,3.65-1.29,1.18-.58,2.31-1.31,3.39-2.2,1.08-.88,2.02-1.95,2.84-3.2l3.49,2.65Z"/>
    <path class="cls-2" d="M552.12,48.62h4.26v20.15h25.57v-20.15h4.26v45.72h-4.26v-21.7h-25.57v21.7h-4.26v-45.72Z"/>
    <path class="cls-2" d="M631.23,76.84c0,2.45-.28,4.8-.84,7.04-.56,2.24-1.5,4.22-2.81,5.94-1.31,1.72-3.04,3.1-5.17,4.13-2.13,1.03-4.75,1.55-7.85,1.55s-5.72-.52-7.85-1.55c-2.13-1.03-3.85-2.41-5.17-4.13-1.31-1.72-2.25-3.7-2.81-5.94-.56-2.24-.84-4.59-.84-7.04v-28.22h4.26v27.12c0,1.64.15,3.38.45,5.23.3,1.85.89,3.57,1.78,5.17.88,1.59,2.13,2.91,3.75,3.94,1.61,1.03,3.76,1.55,6.43,1.55s4.81-.52,6.43-1.55c1.61-1.03,2.86-2.35,3.75-3.94.88-1.59,1.47-3.31,1.78-5.17.3-1.85.45-3.59.45-5.23v-27.12h4.26v28.22Z"/>
    <path class="cls-2" d="M642.92,48.62h12.01c.6,0,1.42.02,2.45.06,1.03.04,2.15.17,3.36.39,1.2.22,2.43.56,3.68,1.03,1.25.47,2.37,1.16,3.36,2.07.99.9,1.81,2.05,2.45,3.42.65,1.38.97,3.06.97,5.04,0,2.2-.38,4-1.13,5.42-.75,1.42-1.7,2.57-2.84,3.45-1.14.88-2.4,1.54-3.78,1.97-1.38.43-2.69.73-3.94.9l13.3,21.96h-4.84l-12.85-21.7h-7.94v21.7h-4.26v-45.72ZM647.18,68.77h9.04c2.24,0,4.06-.28,5.46-.84,1.4-.56,2.49-1.25,3.26-2.07.77-.82,1.3-1.7,1.58-2.65.28-.95.42-1.81.42-2.58s-.14-1.64-.42-2.58c-.28-.95-.81-1.83-1.58-2.65-.77-.82-1.86-1.51-3.26-2.07-1.4-.56-3.22-.84-5.46-.84h-9.04v16.27Z"/>
    <path class="cls-2" d="M718.86,87.18c-2.2,2.97-4.74,5.1-7.62,6.39-2.88,1.29-6.01,1.94-9.36,1.94s-6.68-.59-9.59-1.78-5.39-2.84-7.46-4.97c-2.07-2.13-3.68-4.67-4.84-7.62-1.16-2.95-1.74-6.17-1.74-9.65s.58-6.69,1.74-9.62c1.16-2.93,2.78-5.46,4.84-7.59,2.07-2.13,4.55-3.8,7.46-5,2.91-1.2,6.1-1.81,9.59-1.81,3.1,0,5.99.55,8.69,1.65,2.69,1.1,5.05,2.94,7.07,5.52l-3.49,2.91c-1.42-2.15-3.24-3.72-5.46-4.71-2.22-.99-4.49-1.49-6.81-1.49-2.97,0-5.65.52-8.04,1.55-2.39,1.03-4.42,2.45-6.1,4.26-1.68,1.81-2.97,3.94-3.87,6.39-.9,2.45-1.36,5.1-1.36,7.94s.45,5.49,1.36,7.94c.9,2.45,2.2,4.59,3.87,6.39,1.68,1.81,3.71,3.23,6.1,4.26s5.07,1.55,8.04,1.55c1.16,0,2.37-.14,3.62-.42,1.25-.28,2.46-.71,3.65-1.29,1.18-.58,2.31-1.31,3.39-2.2,1.08-.88,2.02-1.95,2.84-3.2l3.49,2.65Z"/>
    <path class="cls-2" d="M726.67,48.62h4.26v20.15h25.57v-20.15h4.26v45.72h-4.26v-21.7h-25.57v21.7h-4.26v-45.72Z"/>
  </g>
  <g>
    <circle class="cls-1" cx="71.48" cy="71.48" r="71.48"/>
    <g>
      <polygon class="cls-2" points="81.46 35.53 73.83 24.51 78.45 36.68 81.46 35.53"/>
      <polygon class="cls-2" points="68.58 17.8 43.97 47.94 76.07 37.52 68.58 17.8"/>
      <path class="cls-2" d="M34.49,60.47c0-.56.36-1.05.89-1.21l46.97-14.27c.12-.04.24-.05.37-.05.36,0,.72.16.96.44l20.13,23.64c.19.23.3.52.3.82v2.86l7.93-1.98-24.77-34.7-9.1,3.48s-.04.02-.06.02l-53.72,17.43,10.11,9.02v-5.49Z"/>
      <path class="cls-2" d="M37.02,61.4v38.32l45.59-12.11-1.1-39.74-44.49,13.52ZM64.72,88.19c-3.94,1.05-6.1,1.63-9.34,2.5l-1.99.53c-.11.03-.22.04-.33.04-.27,0-.54-.09-.76-.26-.31-.24-.49-.6-.5-.99-.07-5.37-.14-8.99-.22-13.19-.04-2.12-.09-4.39-.14-7.11-.08-4.76,2.67-9.34,6.27-10.42,1.61-.48,3.23-.22,4.56.74,1.75,1.27,2.8,3.59,2.87,6.36.07,2.83.14,5.18.2,7.38.12,4.2.22,7.83.31,13.17,0,.58-.38,1.09-.93,1.24Z"/>
      <path class="cls-2" d="M62.63,66.47c-.05-1.95-.73-3.59-1.83-4.38-.46-.33-.96-.5-1.5-.5-.28,0-.56.04-.85.13-2.49.75-4.54,4.39-4.48,7.96.05,2.72.09,4.98.14,7.1.08,3.76.14,7.07.2,11.59l.42-.11c2.96-.79,5.03-1.35,8.39-2.24-.08-4.8-.18-8.22-.29-12.15-.06-2.2-.13-4.56-.2-7.39Z"/>
      <path class="cls-2" d="M95.57,78.49c.13-.1.29-.17.45-.21l5.58-1.35v-6.63l-17.51-20.57,1.01,36.41,10.48-7.66Z"/>
      <path class="cls-2" d="M110.91,77.88l-74.72,55.77c.97.55,1.96,1.09,2.97,1.6-.33-.17-.65-.33-.98-.5.62.33,1.25.65,1.88.96-.12-.06-.23-.12-.35-.17,9.57,4.76,20.36,7.44,31.77,7.44,20.7,0,39.34-8.8,52.4-22.86l-12.97-42.22Z"/>
      <path class="cls-2" d="M105.63,78.54c-3.21.78-6.61,1.61-8.78,2.13l-12.22,8.92c-.13.09-.27.16-.42.2l-48.14,12.78c-.38.1-.78.02-1.09-.22-.31-.24-.49-.61-.49-1v-3.36l-25.33,8.52c5.92,10.52,14.44,19.38,24.67,25.74.14-.1.27-.2.41-.31l71.64-53.47c-.08.02-.17.04-.25.06Z"/>
    </g>
  </g>
</svg>