<?xml version="1.0" encoding="UTF-8"?>
<svg id="Layer_1" data-name="Layer 1" xmlns="http://www.w3.org/2000/svg" viewBox="0 0 760.77 142.97">
  <defs>
    <style>
      .cls-1 {
        <!-- fill: #fff; -->
        fill: #03564a;
        stroke-width: 0px;
      }
    </style>
  </defs>
  <g>
    <path class="cls-1" d="M65.45,73.75c-.06-2.16-.13-4.47-.2-7.26-.07-2.72-1.1-5-2.82-6.25-1.31-.95-2.9-1.21-4.48-.73-3.54,1.06-6.25,5.56-6.16,10.24.05,2.67.09,4.9.13,6.99.08,4.12.15,7.68.22,12.96,0,.38.19.74.49.97.22.16.48.25.75.25.11,0,.21-.01.32-.04l2.37-.63c2.95-.79,5.06-1.35,8.76-2.35.55-.15.93-.65.92-1.22-.08-5.24-.18-8.81-.3-12.94ZM55.43,87.86l-.83.22c-.06-4.44-.12-7.68-.2-11.38-.04-2.08-.09-4.31-.13-6.98-.06-3.51,1.95-7.09,4.4-7.82.29-.09.57-.13.84-.13.53,0,1.02.16,1.48.49,1.08.78,1.75,2.39,1.79,4.3.07,2.78.13,5.1.2,7.26.11,3.86.2,7.23.28,11.94-3.14.84-5.13,1.37-7.83,2.09Z"/>
    <path class="cls-1" d="M122.03,20.94C108.53,7.44,90.58,0,71.48,0S34.44,7.44,20.94,20.94C7.44,34.44,0,52.39,0,71.48s7.44,37.04,20.94,50.55,31.45,20.94,50.55,20.94,37.04-7.44,50.55-20.94,20.94-31.45,20.94-50.55-7.44-37.04-20.94-50.55ZM22.69,22.69C35.72,9.66,53.05,2.48,71.48,2.48s35.76,7.18,48.79,20.21c13.03,13.03,20.21,30.36,20.21,48.79,0,16.35-5.65,31.82-16.02,44.21l-12.39-40.33c-.02-.05-.04-.1-.06-.15,0,0,0,0,0,0,0,0,0-.01-.01-.02-.02-.05-.05-.09-.08-.14,0-.01-.02-.03-.03-.04-.04-.05-.08-.1-.12-.14,0,0-.01-.01-.02-.02-.04-.04-.08-.07-.12-.1-.01-.01-.03-.02-.04-.03-.05-.03-.09-.06-.15-.09,0,0-.01,0-.02,0-.05-.02-.1-.04-.15-.06,0,0-.02,0-.03,0-.02,0-.03,0-.05-.01-.05-.01-.1-.02-.15-.03-.02,0-.03,0-.05,0-.06,0-.12,0-.19,0-.01,0-.02,0-.04,0-.05,0-.11.01-.16.02,0,0-.02,0-.03,0-1.57.38-3.87.94-6.28,1.52-.26.06-.52.13-.77.19v-1.01l10.15-2.54s.1-.03.15-.05c.33-.13.59-.39.72-.73.14-.38.08-.81-.15-1.15l-25.95-36.36c-.33-.46-.92-.64-1.45-.44l-3.33,1.27-12.93-18.65s-.02-.03-.03-.05l-.67-.96s0,0,0,0c-.04-.06-.08-.11-.13-.16-.01-.01-.03-.02-.04-.04-.04-.03-.08-.07-.12-.1-.02-.01-.03-.02-.05-.03-.05-.04-.11-.07-.17-.09,0,0-.02,0-.02,0-.05-.02-.11-.04-.16-.06-.02,0-.04,0-.06-.01-.02,0-.04-.01-.06-.01-.03,0-.06,0-.08,0-.02,0-.04,0-.06,0-.07,0-.13,0-.19,0-.01,0-.03,0-.04,0-.05,0-.11.02-.16.03-.02,0-.04.01-.06.02-.06.02-.12.04-.17.07,0,0,0,0-.01,0,0,0,0,0,0,0-.06.03-.12.07-.17.11-.02.01-.03.02-.05.04-.04.03-.07.07-.11.1-.01.01-.03.03-.04.04,0,0-.01.01-.02.02l-27.98,34.26-17.7,5.74c-.42.14-.74.49-.83.92-.01.05-.02.11-.02.16,0,.05,0,.11,0,.16.02.32.16.63.41.85l13.19,11.77v25.56l-24.91,8.38c-5.06-9.71-7.74-20.56-7.74-31.82,0-18.43,7.18-35.76,20.21-48.79ZM68.63,18.73l7.36,19.38-31.54,10.23,24.18-29.62ZM103.55,72.67v-2.81c0-.29-.1-.58-.3-.8l-19.78-23.23c-.05-.06-.11-.12-.18-.17-.02-.01-.04-.03-.05-.04-.05-.04-.11-.07-.16-.1-.02,0-.03-.02-.05-.02-.07-.03-.15-.06-.22-.07-.02,0-.04,0-.06,0-.06-.01-.12-.02-.19-.02-.01,0-.03,0-.04,0-.01,0-.02,0-.04,0-.03,0-.06,0-.08,0-.03,0-.07,0-.1.01-.03,0-.06.01-.08.02-.02,0-.04,0-.06.01l-46.15,14.03c-.52.16-.88.64-.88,1.19v5.4l-9.93-8.86,52.79-17.13s.04-.01.06-.02l5.6-2.14s0,0,0,0l3.33-1.28,24.34,34.1-7.79,1.95ZM78.33,37.29l-4.54-11.96,7.51,10.83-2.96,1.14ZM37.61,95.82v-34.24l43.72-13.29,1.08,39.05-44.8,11.9v-3.41ZM84.85,85.89l-.99-35.78,17.21,20.21v6.51c-2.12.51-4.1.99-5.48,1.33-.05.01-.09.03-.14.05-.03.01-.06.02-.09.03-.07.03-.14.08-.21.12l-10.3,7.52ZM11.42,105.52l23.71-7.97v3.3c0,.38.16.78.48.98.19.12.71.3,1.07.22l47.31-12.56s.21-.08.23-.09c.06-.03.13-.07.19-.11l12.01-8.77,6.11-1.49s.06-.01.09-.02c.76-.18,1.53-.37,2.28-.55.13-.03.25-.06.38-.09l-69.74,52.06c-4.62-2.83-8.93-6.22-12.86-10.14-4.46-4.46-8.23-9.42-11.27-14.76ZM120.28,120.28c-13.03,13.03-30.36,20.21-48.79,20.21-11.96,0-23.46-3.03-33.61-8.71l72.36-54.01,12.33,40.12c-.74.81-1.5,1.61-2.28,2.39Z"/>
  </g>
  <g>
    <path class="cls-1" d="M166.85,48.62h13.17c1.59,0,3.26.18,5,.55,1.74.37,3.34,1,4.78,1.9,1.44.9,2.63,2.14,3.55,3.71.93,1.57,1.39,3.54,1.39,5.91,0,2.07-.38,3.85-1.13,5.36-.75,1.51-1.77,2.74-3.04,3.71-1.27.97-2.73,1.69-4.39,2.16-1.66.47-3.39.71-5.2.71h-9.88v21.7h-4.26v-45.72ZM171.11,68.77h9.69c1.2,0,2.39-.14,3.55-.42,1.16-.28,2.2-.73,3.1-1.36.9-.62,1.64-1.45,2.2-2.49.56-1.03.84-2.3.84-3.81s-.29-2.71-.87-3.75c-.58-1.03-1.33-1.88-2.26-2.55-.93-.67-1.99-1.15-3.2-1.45-1.21-.3-2.41-.45-3.62-.45h-9.43v16.27Z"/>
    <path class="cls-1" d="M203.92,48.62h4.26v45.72h-4.26v-45.72Z"/>
    <path class="cls-1" d="M214.25,48.62h4.58l14.72,40.1,14.85-40.1h4.52l-17.37,45.72h-4.26l-17.05-45.72Z"/>
    <path class="cls-1" d="M258.42,48.62h14.14c3.96,0,7.32.48,10.07,1.45,2.75.97,5.05,2.21,6.88,3.71,1.83,1.51,3.27,3.18,4.33,5,1.05,1.83,1.83,3.58,2.32,5.26.49,1.68.81,3.2.94,4.55.13,1.36.19,2.31.19,2.87s-.06,1.52-.19,2.87c-.13,1.36-.44,2.87-.94,4.55-.5,1.68-1.27,3.43-2.32,5.26-1.06,1.83-2.5,3.5-4.33,5-1.83,1.51-4.12,2.74-6.88,3.71-2.76.97-6.11,1.45-10.07,1.45h-14.14v-45.72ZM262.68,90.47h8.78c3.01,0,5.83-.38,8.46-1.13,2.63-.75,4.91-1.9,6.85-3.45,1.94-1.55,3.47-3.52,4.59-5.91,1.12-2.39,1.68-5.22,1.68-8.49s-.56-6.1-1.68-8.49c-1.12-2.39-2.65-4.36-4.59-5.91-1.94-1.55-4.22-2.7-6.85-3.45-2.63-.75-5.45-1.13-8.46-1.13h-8.78v37.97Z"/>
    <path class="cls-1" d="M306.85,48.62h27.96v3.87h-23.7v16.27h22.21v3.87h-22.21v17.82h24.73v3.87h-29v-45.72Z"/>
    <path class="cls-1" d="M345.15,48.62h5.49l27.83,40.04h.13v-40.04h4.26v45.72h-5.49l-27.83-40.04h-.13v40.04h-4.26v-45.72Z"/>
    <path class="cls-1" d="M395.39,48.62h5.49l27.83,40.04h.13v-40.04h4.26v45.72h-5.49l-27.83-40.04h-.13v40.04h-4.26v-45.72Z"/>
    <path class="cls-1" d="M459.65,48.62h4.39l19.24,45.72h-4.78l-4.97-12.14h-24.22l-5.17,12.14h-4.46l19.95-45.72ZM461.65,53.27l-10.66,25.06h20.99l-10.33-25.06Z"/>
    <path class="cls-1" d="M544.31,87.18c-2.2,2.97-4.74,5.1-7.62,6.39-2.88,1.29-6.01,1.94-9.36,1.94s-6.68-.59-9.59-1.78-5.39-2.84-7.46-4.97c-2.07-2.13-3.68-4.67-4.84-7.62-1.16-2.95-1.74-6.17-1.74-9.65s.58-6.69,1.74-9.62c1.16-2.93,2.78-5.46,4.84-7.59,2.07-2.13,4.55-3.8,7.46-5,2.91-1.2,6.1-1.81,9.59-1.81,3.1,0,5.99.55,8.69,1.65,2.69,1.1,5.05,2.94,7.07,5.52l-3.49,2.91c-1.42-2.15-3.24-3.72-5.46-4.71-2.22-.99-4.49-1.49-6.81-1.49-2.97,0-5.65.52-8.04,1.55-2.39,1.03-4.42,2.45-6.1,4.26-1.68,1.81-2.97,3.94-3.87,6.39-.9,2.45-1.36,5.1-1.36,7.94s.45,5.49,1.36,7.94,2.2,4.59,3.87,6.39c1.68,1.81,3.71,3.23,6.1,4.26s5.07,1.55,8.04,1.55c1.16,0,2.37-.14,3.62-.42,1.25-.28,2.46-.71,3.65-1.29,1.18-.58,2.31-1.31,3.39-2.2,1.08-.88,2.02-1.95,2.84-3.2l3.49,2.65Z"/>
    <path class="cls-1" d="M552.12,48.62h4.26v20.15h25.57v-20.15h4.26v45.72h-4.26v-21.7h-25.57v21.7h-4.26v-45.72Z"/>
    <path class="cls-1" d="M631.23,76.84c0,2.45-.28,4.8-.84,7.04-.56,2.24-1.5,4.22-2.81,5.94-1.31,1.72-3.04,3.1-5.17,4.13-2.13,1.03-4.75,1.55-7.85,1.55s-5.72-.52-7.85-1.55c-2.13-1.03-3.85-2.41-5.17-4.13-1.31-1.72-2.25-3.7-2.81-5.94-.56-2.24-.84-4.59-.84-7.04v-28.22h4.26v27.12c0,1.64.15,3.38.45,5.23.3,1.85.89,3.57,1.78,5.17.88,1.59,2.13,2.91,3.75,3.94,1.61,1.03,3.76,1.55,6.43,1.55s4.81-.52,6.43-1.55c1.61-1.03,2.86-2.35,3.75-3.94.88-1.59,1.47-3.31,1.78-5.17.3-1.85.45-3.59.45-5.23v-27.12h4.26v28.22Z"/>
    <path class="cls-1" d="M642.92,48.62h12.01c.6,0,1.42.02,2.45.06,1.03.04,2.15.17,3.36.39,1.2.22,2.43.56,3.68,1.03,1.25.47,2.37,1.16,3.36,2.07.99.9,1.81,2.05,2.45,3.42.65,1.38.97,3.06.97,5.04,0,2.2-.38,4-1.13,5.42-.75,1.42-1.7,2.57-2.84,3.45-1.14.88-2.4,1.54-3.78,1.97-1.38.43-2.69.73-3.94.9l13.3,21.96h-4.84l-12.85-21.7h-7.94v21.7h-4.26v-45.72ZM647.18,68.77h9.04c2.24,0,4.06-.28,5.46-.84,1.4-.56,2.49-1.25,3.26-2.07.77-.82,1.3-1.7,1.58-2.65.28-.95.42-1.81.42-2.58s-.14-1.64-.42-2.58c-.28-.95-.81-1.83-1.58-2.65-.77-.82-1.86-1.51-3.26-2.07-1.4-.56-3.22-.84-5.46-.84h-9.04v16.27Z"/>
    <path class="cls-1" d="M718.86,87.18c-2.2,2.97-4.74,5.1-7.62,6.39-2.88,1.29-6.01,1.94-9.36,1.94s-6.68-.59-9.59-1.78-5.39-2.84-7.46-4.97c-2.07-2.13-3.68-4.67-4.84-7.62-1.16-2.95-1.74-6.17-1.74-9.65s.58-6.69,1.74-9.62c1.16-2.93,2.78-5.46,4.84-7.59,2.07-2.13,4.55-3.8,7.46-5,2.91-1.2,6.1-1.81,9.59-1.81,3.1,0,5.99.55,8.69,1.65,2.69,1.1,5.05,2.94,7.07,5.52l-3.49,2.91c-1.42-2.15-3.24-3.72-5.46-4.71-2.22-.99-4.49-1.49-6.81-1.49-2.97,0-5.65.52-8.04,1.55-2.39,1.03-4.42,2.45-6.1,4.26-1.68,1.81-2.97,3.94-3.87,6.39-.9,2.45-1.36,5.1-1.36,7.94s.45,5.49,1.36,7.94c.9,2.45,2.2,4.59,3.87,6.39,1.68,1.81,3.71,3.23,6.1,4.26s5.07,1.55,8.04,1.55c1.16,0,2.37-.14,3.62-.42,1.25-.28,2.46-.71,3.65-1.29,1.18-.58,2.31-1.31,3.39-2.2,1.08-.88,2.02-1.95,2.84-3.2l3.49,2.65Z"/>
    <path class="cls-1" d="M726.67,48.62h4.26v20.15h25.57v-20.15h4.26v45.72h-4.26v-21.7h-25.57v21.7h-4.26v-45.72Z"/>
  </g>
</svg>